# xmcd
#
# Track frame offsets:
#	150
#	13037
#	23852
#	35190
#	47689
#	58957
#	75317
#	86325
#	96575
#	110172
#	124955
#	138167
#	152187
#	164802
#	174742
#	182965
#	192812
#	201960
#	211555
#	221520
#	231502
#	242112
#	253370
#	265022
#	276572
#
# Disc length: 3864 seconds
#
# Revision: 0
# Processed by: cddbd v1.5.2PL0 Copyright (c) Steve Scherf et al.
# Submitted via: audiograbber 1.83.01
#
DISCID=810f1619
DTITLE=Various Artist - Top Country - Country Stars
DYEAR=1996
DGENRE=Country
TTITLE0=Merle Haggard - Swingin' Doors
TTITLE1=Faron Young - Riverboat
TTITLE2=Don Gibson - Just One Time
TTITLE3=Charlie Rich - Behind Closed Doors
TTITLE4=Connie Smith - Nobody But A Fool Would Love You
TTITLE5=Moe Bandy - Cool Water
TTITLE6=Porter Wagoner - Eat, Drink And Be Merry
TTITLE7=Jean Shephard - If Teardrops Where Silver
TTITLE8=BJ The DJ - Stonewall Jackson
TTITLE9=Johnny Paycheck - A Good Year For The Roses
TTITLE10=Ferlin Husky - Room Full Of Roses
TTITLE11=Jeanne Seely - Don't Touch Me 
TTITLE12=Patsy Cline - Fingerprints
TTITLE13=Ray Price - Make The World Go Away
TTITLE14=Roger Miller - In The Summertime (You Don't Want My Love)
TTITLE15=Hank Locklin - Geisha Girl
TTITLE16=Kitty Wells - I'll Repossess My Heart
TTITLE17=Bill Phillips - The Company You Keep
TTITLE18=Warner Mack - It Takes Alot Of Money
TTITLE19=Jim Ed Brown - Southern Loving
TTITLE20=Jimmy C Newman - DJ For A Day
TTITLE21=Bill Charlisle - No Help Wanted
TTITLE22=Del Wood - Down Yonder
TTITLE23=Carl Smith - Loose Talk
TTITLE24=Lynn Anderson - Top Of The World
EXTD=YEAR: 1996
EXTT0=
EXTT1=
EXTT2=
EXTT3=
EXTT4=
EXTT5=
EXTT6=
EXTT7=
EXTT8=
EXTT9=
EXTT10=
EXTT11=
EXTT12=
EXTT13=
EXTT14=
EXTT15=
EXTT16=
EXTT17=
EXTT18=
EXTT19=
EXTT20=
EXTT21=
EXTT22=
EXTT23=
EXTT24=
PLAYORDER=
